# xmcd CD database file
#
# Track frame offsets:
#	150
#	16066
#	32589
#	45939
#	59571
#	75654
#	91515
#	106038
#	118283
#	133009
#	148496
#	163337
#	177052
#
# Disc length: 2561 seconds
#
# Revision: 0
# Processed by: cddbd v1.5.2PL0 Copyright (c) Steve Scherf et al.
# Submitted via: CDex 1.51
#
DISCID=a409ff0d
DTITLE=Eden and John's East River String Band - Drunken Barrel House Blues
DYEAR=2009
DGENRE=Blues
TTITLE0=Drunken Barrel House Blues
TTITLE1=The Rain Don't Fall On Me
TTITLE2=Johnson Boys
TTITLE3=The Fate of Talmadge Osborne
TTITLE4=Screamin' adn Hollerin' the Blues
TTITLE5=Last Kind Words Blues
TTITLE6=Gonna Raise a Ruckus Tonight
TTITLE7=I Wish I Was a Mole in the Ground
TTITLE8=Yellow Bee
TTITLE9=Too Tight Blues
TTITLE10=Corrina Blues
TTITLE11=Devilish Mary
TTITLE12=The Spasm
EXTD=YEAR: 2009
EXTT0=
EXTT1=
EXTT2=
EXTT3=
EXTT4=
EXTT5=
EXTT6=
EXTT7=
EXTT8=
EXTT9=
EXTT10=
EXTT11=
EXTT12=
PLAYORDER=
